<?xml version="1.0" encoding="UTF-8"?>
<svg id="Capa_1" data-name="Capa 1" xmlns="http://www.w3.org/2000/svg" viewBox="0 0 708.72 170.16">
  <defs>
    <style>
      .cls-1 {
        fill: #fff;
      }

      .cls-2 {
        fill: #fefefe;
      }
    </style>
  </defs>
  <path class="cls-2" d="M423.05,112.76V42.2h9.12v87.12h-7.56l-56.04-70.56v70.56h-9.12V42.2h7.56l56.04,70.56Z"/>
  <path class="cls-2" d="M102.65,143.72c-1.36-.39.53-1.63,1.43-4.45.6-1.88.99-5,.97-6.95,0-1.24-.15-2.88-.5-4.56-.05-.24.13-.84.38-.84h24.96c2.1-.11,2.17-.11,2.28-3v-27.13c0-1.77-.89-3.37-2.76-3.72l-31.58-.1c-.94-.24-1.23-1.31-1.54-2.06-3.21-7.73-3.21-7.75-5.05-12.47-.29-.69.26-1.77,1.09-1.73,13.69-.12,13.08.02,35.35,0q5.6,0,9.04,0c5.73,0,0,0,5.81,0,6.88.01,6.05.03,5.97,9.51-.19,23.67.02,34.08-.01,50.41q.09,7.08-6.84,7.08h-39Z"/>
  <path class="cls-1" d="M42.05,93.08q-6.85,0-6.84-7.8v-52.08q-.01-6.72,6.49-6.72,10.53,0,30.16.02c1.06,0,1.08,0,2.55,0,2.46,0,4.94-.06,5.77.14.17.04.42.28.29.54-.52,1.06-1.08,2.76-1.26,3.45-1.22,4.46-1.14,6.34-1.02,9.05.08,1.9.89,3.49.12,3.72h-24.24q-2.52,0-2.53,2.27-.14,19.64,0,28.58c.05,3.68,1.04,2.82,2.53,2.99l31.64.04c.75.04.89.76,1.1,1.3q3.12,7.92,5.44,13.28c.24.31.07,1.21-.25,1.21h-49.92Z"/>
  <path class="cls-2" d="M335.93,42.2v8.16l-50.4.12v30.6h44.88v7.92h-44.88v32.04l52.32.48v7.44s-.33.36-.36.36h-61.08V42.2h59.52Z"/>
  <path class="cls-2" d="M486.41,129.32h-9.12V50.48l-30.48-.12v-8.16h70.32v8.14l-30.72.14v78.84Z"/>
  <path class="cls-2" d="M625.61,42.2v79.2l48.72.12v7.8h-58.08V42.2h9.36Z"/>
  <path class="cls-2" d="M91.08,26.44l57.41.05c1.29-.05.36,4.37.13,5.41-1.06,4.72-3.98,9.92-8.94,11.22l-55.87.06c-.62-.03-.69-.85-.77-1.39-.57-3.74-.01-9.85,1.62-13.33.81-1.73,1.39-1.98,1.84-1.98,1.68,0,2.63,0,4.58-.04Z"/>
  <path class="cls-1" d="M43.97,126.87l55.38-.05c.24.03.48.13.63.33.57.74.54,6.45.42,7.67-.26,2.88-3.17,8.4-6.44,8.9h-58.81c-.86-.7-.8-2.82-.71-3.83.48-5.41,3.68-13.08,9.53-13.03Z"/>
  <path class="cls-2" d="M234.89,99.45c11.02-3.52,18.87-12.49,19.68-24.25,1.51-21.88-13.51-32.13-33.71-33.01h-34.21v87.13h9.12v-27.6c10.08-.12,20.19.31,30.23-.37l20.05,27.97h9.72l-20.88-29.88ZM195.77,93.8v-43.4s0,0,2.27-.03c11.68-.1,30.58-.82,37.88,3.64,13.6,8.3,12.62,31.38-2.48,37.27-7.87,3.12-24.35,2.56-37.67,2.53Z"/>
  <path class="cls-2" d="M562.28,42.35l-8.79-.17-39.95,87.14h9.24l10.84-23.24,47.97-.06,10.67,23.3h9.6l-39.58-86.97ZM536.81,98.6l20.64-46.56,20.88,46.56h-41.52Z"/>
</svg>